<svg xmlns="http://www.w3.org/2000/svg" width="28.83" height="27.946" viewBox="0 0 28.83 27.946">
  <g id="Layer_15" data-name="Layer 15" transform="translate(-1.595 -3.839)">
    <path id="Path_4" data-name="Path 4" d="M16,6.934C11.55,2.506,6.38,3.323,3.6,6.508a8.271,8.271,0,0,0-2,5.75A11.1,11.1,0,0,0,4.55,19.1L15.28,31.451a.91.91,0,0,0,1.41,0L27.42,19.123a11.158,11.158,0,0,0,3-6.9,8.258,8.258,0,0,0-2-5.75c-2.79-3.185-7.97-3.99-12.42.46ZM26,17.49,16,28.99,6,17.49a8.694,8.694,0,0,1-2.39-5.3A5.824,5.824,0,0,1,5,8.141,5.656,5.656,0,0,1,9.3,6.175a8.062,8.062,0,0,1,6,3.151.91.91,0,0,0,1.41,0C20.38,5.082,24.75,5.531,27,8.107a5.8,5.8,0,0,1,1.4,4.059A8.77,8.77,0,0,1,26,17.5Z" transform="translate(0 0)"/>
  </g>
</svg>
